<svg xmlns="http://www.w3.org/2000/svg" width="161.964" height="143.646" viewBox="0 0 161.964 143.646">
  <g id="Group_853" data-name="Group 853" transform="translate(-337.427 -288.303)">
    <rect id="Rectangle_1134" data-name="Rectangle 1134" width="80.33" height="106.2" transform="translate(368.145 325.164)" fill="#fff"/>
    <rect id="Rectangle_1135" data-name="Rectangle 1135" width="80.33" height="15.03" transform="translate(368.145 327.521)" fill="#98a0a7"/>
    <rect id="Rectangle_1136" data-name="Rectangle 1136" width="80.33" height="15.03" transform="translate(368.145 325.164)" fill="#d84f29"/>
    <rect id="Rectangle_1137" data-name="Rectangle 1137" width="80.33" height="2.16" transform="translate(368.145 339.016)" fill="#d7d5d5"/>
    <rect id="Rectangle_1138" data-name="Rectangle 1138" width="80.33" height="106.2" transform="translate(368.145 325.164)" fill="none" stroke="#414042" stroke-miterlimit="10" stroke-width="1"/>
    <line id="Line_894" data-name="Line 894" x2="10.48" transform="translate(378.747 352.657)" fill="none" stroke="#414042" stroke-miterlimit="10" stroke-width="1"/>
    <line id="Line_895" data-name="Line 895" x2="18.836" transform="translate(417.552 421.397)" fill="none" stroke="#414042" stroke-miterlimit="10" stroke-width="1"/>
    <line id="Line_896" data-name="Line 896" x2="57.642" transform="translate(378.747 360.022)" fill="none" stroke="#414042" stroke-miterlimit="10" stroke-width="1"/>
    <line id="Line_897" data-name="Line 897" x2="57.642" transform="translate(378.747 366.86)" fill="none" stroke="#414042" stroke-miterlimit="10" stroke-width="1"/>
    <line id="Line_898" data-name="Line 898" x2="57.642" transform="translate(378.747 373.699)" fill="none" stroke="#414042" stroke-miterlimit="10" stroke-width="1"/>
    <line id="Line_899" data-name="Line 899" x2="57.642" transform="translate(378.747 380.537)" fill="none" stroke="#414042" stroke-miterlimit="10" stroke-width="1"/>
    <line id="Line_900" data-name="Line 900" x2="57.642" transform="translate(378.747 387.376)" fill="none" stroke="#414042" stroke-miterlimit="10" stroke-width="1"/>
    <line id="Line_901" data-name="Line 901" x2="57.642" transform="translate(378.747 394.214)" fill="none" stroke="#414042" stroke-miterlimit="10" stroke-width="1"/>
    <line id="Line_902" data-name="Line 902" x2="57.642" transform="translate(378.747 401.053)" fill="none" stroke="#414042" stroke-miterlimit="10" stroke-width="1"/>
    <line id="Line_903" data-name="Line 903" x2="57.642" transform="translate(378.747 407.891)" fill="none" stroke="#414042" stroke-miterlimit="10" stroke-width="1"/>
    <path id="Path_3584" data-name="Path 3584" d="M449.3,79.727a3.54,3.54,0,1,1-3.541-3.54A3.54,3.54,0,0,1,449.3,79.727Z" transform="translate(-67.01 252.952)" fill="#fff"/>
    <rect id="Rectangle_1139" data-name="Rectangle 1139" width="58.58" height="27.262" transform="translate(427.26 404.102)" fill="#fff"/>
    <path id="Path_3585" data-name="Path 3585" d="M536.135,127.087v-.008H477.556v.008l29.29,16.323Z" transform="translate(-50.296 277.023)" fill="#d84f29"/>
    <rect id="Rectangle_1140" data-name="Rectangle 1140" width="58.58" height="27.262" transform="translate(427.26 404.102)" fill="none" stroke="#414042" stroke-miterlimit="10" stroke-width="1"/>
    <path id="Path_3586" data-name="Path 3586" d="M437.044,109.363v56.393H431.05V109.363l2.837-7.456a.171.171,0,0,1,.32,0Z" transform="translate(-72.292 265.065)" fill="#fff"/>
    <rect id="Rectangle_1141" data-name="Rectangle 1141" width="56.393" height="5.994" transform="translate(358.758 430.821) rotate(-90)" fill="#eb8456"/>
    <rect id="Rectangle_1142" data-name="Rectangle 1142" width="56.393" height="2.997" transform="translate(358.758 430.821) rotate(-90)" fill="#1535b6"/>
    <rect id="Rectangle_1143" data-name="Rectangle 1143" width="6.997" height="6.325" transform="translate(358.592 430.831) rotate(-90)" fill="#fff"/>
    <path id="Path_3587" data-name="Path 3587" d="M437.044,109.363v56.393H431.05V109.363l2.837-7.456a.171.171,0,0,1,.32,0Z" transform="translate(-72.292 265.065)" fill="none" stroke="#414042" stroke-miterlimit="10" stroke-width="1"/>
    <line id="Line_904" data-name="Line 904" x2="6.159" transform="translate(358.757 423.834)" fill="none" stroke="#414042" stroke-miterlimit="10" stroke-width="1"/>
    <line id="Line_905" data-name="Line 905" x2="5.24" transform="translate(359.134 374.428)" fill="none" stroke="#414042" stroke-miterlimit="10" stroke-width="1"/>
    <path id="Path_3588" data-name="Path 3588" d="M479.5,117.376A20.82,20.82,0,1,0,500.324,138.2,20.819,20.819,0,0,0,479.5,117.376Zm0,24.549a3.729,3.729,0,1,1,3.73-3.73A3.728,3.728,0,0,1,479.5,141.925Z" transform="translate(-59.222 272.434)" fill="#fff"/>
    <ellipse id="Ellipse_23" data-name="Ellipse 23" cx="20.82" cy="20.82" rx="20.82" ry="20.82" transform="translate(399.463 389.809)" fill="none" stroke="#414042" stroke-miterlimit="10" stroke-width="1"/>
    <path id="Path_3589" data-name="Path 3589" d="M479.088,118.256a19.524,19.524,0,1,0,19.523,19.523A19.523,19.523,0,0,0,479.088,118.256Zm0,23.252a3.729,3.729,0,1,1,3.73-3.73A3.728,3.728,0,0,1,479.088,141.508Z" transform="translate(-58.806 272.85)" fill="#f1f2f2"/>
    <path id="Path_3590" data-name="Path 3590" d="M475.754,125.3a9.141,9.141,0,1,0,9.141,9.141A9.141,9.141,0,0,0,475.754,125.3Zm0,12.871a3.729,3.729,0,1,1,3.73-3.73A3.728,3.728,0,0,1,475.754,138.175Z" transform="translate(-55.472 276.183)" fill="#1535b6"/>
    <path id="Path_3591" data-name="Path 3591" d="M475.277,126.315a7.653,7.653,0,1,0,7.652,7.652A7.653,7.653,0,0,0,475.277,126.315Zm0,11.382a3.729,3.729,0,1,1,3.73-3.73A3.728,3.728,0,0,1,475.277,137.7Z" transform="translate(-54.994 276.661)" fill="#d7d5d5"/>
    <path id="Path_3592" data-name="Path 3592" d="M474.9,127.118a6.469,6.469,0,1,0,6.469,6.469A6.47,6.47,0,0,0,474.9,127.118Zm0,10.2a3.729,3.729,0,1,1,3.73-3.73A3.728,3.728,0,0,1,474.9,137.317Z" transform="translate(-54.614 277.041)" fill="#eb8456"/>
    <rect id="Rectangle_1144" data-name="Rectangle 1144" width="31.549" height="17.589" transform="translate(453.64 379.76)" fill="#f1f2f2"/>
    <rect id="Rectangle_1145" data-name="Rectangle 1145" width="31.549" height="4.022" transform="translate(453.64 382.116)" fill="#98a0a7"/>
    <rect id="Rectangle_1146" data-name="Rectangle 1146" width="31.549" height="4.022" transform="translate(453.64 380.938)" fill="#d7d5d5"/>
    <rect id="Rectangle_1147" data-name="Rectangle 1147" width="31.549" height="4.022" transform="translate(453.64 379.76)" fill="#d84f29"/>
    <line id="Line_906" data-name="Line 906" x2="11.899" transform="translate(463.465 389.625)" fill="none" stroke="#414042" stroke-miterlimit="10" stroke-width="1"/>
    <line id="Line_907" data-name="Line 907" x2="5.14" transform="translate(466.845 391.982)" fill="none" stroke="#414042" stroke-miterlimit="10" stroke-width="1"/>
    <rect id="Rectangle_1148" data-name="Rectangle 1148" width="31.549" height="17.589" transform="translate(453.64 355.995)" fill="#f1f2f2"/>
    <rect id="Rectangle_1149" data-name="Rectangle 1149" width="31.549" height="8.795" transform="translate(453.64 355.995)" fill="#d84f29"/>
    <ellipse id="Ellipse_24" data-name="Ellipse 24" cx="4.484" cy="4.484" rx="4.484" ry="4.484" transform="translate(464.93 360.306)" fill="#1535b6"/>
    <line id="Line_908" data-name="Line 908" x2="5.21" transform="translate(456.297 366.776)" fill="none" stroke="#414042" stroke-miterlimit="10" stroke-width="1"/>
    <line id="Line_909" data-name="Line 909" x2="5.21" transform="translate(456.297 369.029)" fill="none" stroke="#414042" stroke-miterlimit="10" stroke-width="1"/>
    <line id="Line_910" data-name="Line 910" x2="12.533" transform="translate(456.297 371.282)" fill="none" stroke="#414042" stroke-miterlimit="10" stroke-width="1"/>
    <rect id="Rectangle_1150" data-name="Rectangle 1150" width="15.786" height="15.786" transform="translate(339.114 335.069)" fill="#1535b6"/>
    <rect id="Rectangle_1151" data-name="Rectangle 1151" width="15.786" height="15.786" transform="translate(345.969 327.176)" fill="none" stroke="#414042" stroke-miterlimit="10" stroke-width="1"/>
    <line id="Line_911" data-name="Line 911" x2="158.148" transform="translate(341.243 431.364)" fill="none" stroke="#414042" stroke-miterlimit="10" stroke-width="1"/>
    <ellipse id="Ellipse_25" data-name="Ellipse 25" cx="9.043" cy="9.043" rx="9.043" ry="9.043" transform="translate(455.658 314.598)" fill="#1535b6"/>
    <ellipse id="Ellipse_26" data-name="Ellipse 26" cx="9.043" cy="9.043" rx="9.043" ry="9.043" transform="translate(460.371 318.133)" fill="none" stroke="#414042" stroke-miterlimit="10" stroke-width="1" stroke-dasharray="2"/>
    <path id="Path_3593" data-name="Path 3593" d="M491.708,64.171a1.187,1.187,0,1,1-1.187-1.187A1.188,1.188,0,0,1,491.708,64.171Z" transform="translate(-44.725 246.707)" fill="none" stroke="#414042" stroke-miterlimit="10" stroke-width="1"/>
    <path id="Path_3594" data-name="Path 3594" d="M440.549,55.236a1.187,1.187,0,1,1-1.187-1.187A1.187,1.187,0,0,1,440.549,55.236Z" transform="translate(-68.922 242.481)" fill="none" stroke="#414042" stroke-miterlimit="10" stroke-width="1"/>
    <path id="Path_3595" data-name="Path 3595" d="M419.282,69.1a1.187,1.187,0,1,1-1.187-1.187A1.187,1.187,0,0,1,419.282,69.1Z" transform="translate(-78.981 249.037)" fill="none" stroke="#414042" stroke-miterlimit="10" stroke-width="1"/>
    <path id="Path_3596" data-name="Path 3596" d="M516.439,83.273a1.187,1.187,0,1,1-1.187-1.187A1.187,1.187,0,0,1,516.439,83.273Z" transform="translate(-33.028 255.742)" fill="none" stroke="#414042" stroke-miterlimit="10" stroke-width="1"/>
    <path id="Path_3597" data-name="Path 3597" d="M462.426,66.632a8.914,8.914,0,0,1,0-17.829" transform="translate(-61.668 240)" fill="none" stroke="#414042" stroke-miterlimit="10" stroke-width="1" stroke-dasharray="2"/>
    <path id="Path_3598" data-name="Path 3598" d="M459.564,48.8a8.914,8.914,0,1,1,0,17.829" transform="translate(-58.806 240)" fill="none" stroke="#414042" stroke-miterlimit="10" stroke-width="1"/>
    <line id="Line_912" data-name="Line 912" x2="3.341" transform="translate(399.088 297.717)" fill="none" stroke="#414042" stroke-miterlimit="10" stroke-width="1"/>
    <line id="Line_913" data-name="Line 913" y1="3.341" transform="translate(400.759 296.047)" fill="none" stroke="#414042" stroke-miterlimit="10" stroke-width="1"/>
    <line id="Line_914" data-name="Line 914" x2="25.177" transform="translate(457.046 345.833)" fill="none" stroke="#414042" stroke-miterlimit="10" stroke-width="1"/>
    <line id="Line_915" data-name="Line 915" x1="2.175" transform="translate(483.297 345.833)" fill="none" stroke="#414042" stroke-miterlimit="10" stroke-width="1"/>
    <line id="Line_916" data-name="Line 916" x1="2.175" transform="translate(486.519 345.833)" fill="none" stroke="#414042" stroke-miterlimit="10" stroke-width="1"/>
    <line id="Line_917" data-name="Line 917" x2="24.176" transform="translate(385.564 312.42)" fill="none" stroke="#414042" stroke-miterlimit="10" stroke-width="1"/>
    <line id="Line_918" data-name="Line 918" x1="2.089" transform="translate(410.771 312.42)" fill="none" stroke="#414042" stroke-miterlimit="10" stroke-width="1"/>
    <line id="Line_919" data-name="Line 919" x1="2.089" transform="translate(413.865 312.42)" fill="none" stroke="#414042" stroke-miterlimit="10" stroke-width="1"/>
    <line id="Line_920" data-name="Line 920" x2="3.081" transform="translate(419.193 312.42)" fill="none" stroke="#414042" stroke-miterlimit="10" stroke-width="1"/>
    <line id="Line_921" data-name="Line 921" y1="3.082" transform="translate(420.734 310.879)" fill="none" stroke="#414042" stroke-miterlimit="10" stroke-width="1"/>
    <line id="Line_922" data-name="Line 922" x2="3.082" transform="translate(455.505 337.828)" fill="none" stroke="#414042" stroke-miterlimit="10" stroke-width="1"/>
    <line id="Line_923" data-name="Line 923" y1="3.082" transform="translate(457.046 336.287)" fill="none" stroke="#414042" stroke-miterlimit="10" stroke-width="1"/>
    <line id="Line_924" data-name="Line 924" x2="3.082" transform="translate(481.87 305.047)" fill="none" stroke="#414042" stroke-miterlimit="10" stroke-width="1"/>
    <line id="Line_925" data-name="Line 925" y1="3.082" transform="translate(483.411 303.506)" fill="none" stroke="#414042" stroke-miterlimit="10" stroke-width="1"/>
    <line id="Line_926" data-name="Line 926" x2="3.082" transform="translate(352.321 309.691)" fill="none" stroke="#414042" stroke-miterlimit="10" stroke-width="1"/>
    <line id="Line_927" data-name="Line 927" y1="3.082" transform="translate(353.862 308.15)" fill="none" stroke="#414042" stroke-miterlimit="10" stroke-width="1"/>
    <line id="Line_928" data-name="Line 928" x2="3.081" transform="translate(345.466 363.415)" fill="none" stroke="#414042" stroke-miterlimit="10" stroke-width="1"/>
    <line id="Line_929" data-name="Line 929" y1="3.082" transform="translate(347.007 361.875)" fill="none" stroke="#414042" stroke-miterlimit="10" stroke-width="1"/>
    <line id="Line_930" data-name="Line 930" x2="1.538" transform="translate(416.458 318.133)" fill="none" stroke="#414042" stroke-miterlimit="10" stroke-width="1"/>
    <line id="Line_931" data-name="Line 931" x2="1.538" transform="translate(419.246 318.133)" fill="none" stroke="#414042" stroke-miterlimit="10" stroke-width="1"/>
    <line id="Line_932" data-name="Line 932" x2="1.538" transform="translate(422.034 318.133)" fill="none" stroke="#414042" stroke-miterlimit="10" stroke-width="1"/>
    <line id="Line_933" data-name="Line 933" x2="1.538" transform="translate(424.822 318.133)" fill="none" stroke="#414042" stroke-miterlimit="10" stroke-width="1"/>
    <line id="Line_934" data-name="Line 934" x2="1.538" transform="translate(427.609 318.133)" fill="none" stroke="#414042" stroke-miterlimit="10" stroke-width="1"/>
    <line id="Line_935" data-name="Line 935" x2="1.538" transform="translate(430.397 318.133)" fill="none" stroke="#414042" stroke-miterlimit="10" stroke-width="1"/>
    <line id="Line_936" data-name="Line 936" x2="1.538" transform="translate(433.185 318.133)" fill="none" stroke="#414042" stroke-miterlimit="10" stroke-width="1"/>
    <line id="Line_937" data-name="Line 937" x2="1.538" transform="translate(435.973 318.133)" fill="none" stroke="#414042" stroke-miterlimit="10" stroke-width="1"/>
    <line id="Line_938" data-name="Line 938" x2="1.538" transform="translate(438.76 318.133)" fill="none" stroke="#414042" stroke-miterlimit="10" stroke-width="1"/>
    <line id="Line_939" data-name="Line 939" x2="1.538" transform="translate(441.548 318.133)" fill="none" stroke="#414042" stroke-miterlimit="10" stroke-width="1"/>
    <line id="Line_940" data-name="Line 940" x2="14.747" transform="translate(351.761 354.778)" fill="none" stroke="#414042" stroke-miterlimit="10" stroke-width="1"/>
    <line id="Line_941" data-name="Line 941" x2="42.903" transform="translate(420.562 306.632)" fill="none" stroke="#414042" stroke-miterlimit="10" stroke-width="1"/>
    <line id="Line_942" data-name="Line 942" x2="45.654" transform="translate(352.379 318.133)" fill="none" stroke="#414042" stroke-miterlimit="10" stroke-width="1"/>
  </g>
</svg>
