<svg xmlns="http://www.w3.org/2000/svg" width="164.974" height="153.17" viewBox="0 0 164.974 153.17">
  <g id="Group_854" data-name="Group 854" transform="translate(-334.753 -523.293)">
    <rect id="Rectangle_817" data-name="Rectangle 817" width="27.336" height="16.182" transform="translate(388.369 659.545)" fill="#f1f2f2"/>
    <rect id="Rectangle_818" data-name="Rectangle 818" width="27.336" height="8.091" transform="translate(388.369 659.545)" fill="#d1d3d4"/>
    <rect id="Rectangle_819" data-name="Rectangle 819" width="27.336" height="16.182" transform="translate(388.369 659.545)" fill="none" stroke="#414042" stroke-miterlimit="10" stroke-width="1"/>
    <rect id="Rectangle_820" data-name="Rectangle 820" width="89.856" height="53.968" transform="translate(357.051 597.398)" fill="#98a0a7"/>
    <rect id="Rectangle_821" data-name="Rectangle 821" width="80.987" height="42.626" transform="translate(361.594 602.675)" fill="#fff"/>
    <rect id="Rectangle_822" data-name="Rectangle 822" width="88.736" height="12.253" transform="translate(357.534 649.384)" fill="#fff"/>
    <rect id="Rectangle_823" data-name="Rectangle 823" width="89.021" height="12.253" transform="translate(357.534 649.384)" fill="none" stroke="#414042" stroke-miterlimit="10" stroke-width="1"/>
    <line id="Line_556" data-name="Line 556" x2="38.322" transform="translate(383.054 675.727)" fill="none" stroke="#414042" stroke-miterlimit="10" stroke-width="1"/>
    <path id="Path_3299" data-name="Path 3299" d="M477.624,116.2l4.336-.763-.929-5.288-4.341.763a10.281,10.281,0,0,0-.856-1.491l2.831-3.372-4.113-3.451-2.833,3.375a10.09,10.09,0,0,0-1.614-.588v-4.407h-5.369v4.407a10.19,10.19,0,0,0-1.6.579l-2.827-3.38L456.2,106.03l2.824,3.378a10.339,10.339,0,0,0-.859,1.489l-4.338-.772-.941,5.287,4.335.77a10.191,10.191,0,0,0,.3,1.692l-3.819,2.2,2.678,4.655,3.812-2.195a10.176,10.176,0,0,0,1.321,1.1L460,127.773l5.043,1.841,1.51-4.138c.287.025.576.044.87.044s.567-.019.849-.043l1.5,4.141,5.048-1.831-1.5-4.141a10.189,10.189,0,0,0,1.323-1.1l3.809,2.2,2.687-4.647-3.815-2.207A10.171,10.171,0,0,0,477.624,116.2Zm-6.17-.932a4.032,4.032,0,1,1-4.032-4.032A4.032,4.032,0,0,1,471.453,115.27Z" transform="translate(-64.912 509.193)" fill="#1535b6"/>
    <path id="Path_3300" data-name="Path 3300" d="M468.08,111.977a4.032,4.032,0,1,1-4.032-4.032A4.032,4.032,0,0,1,468.08,111.977Z" transform="translate(-61.538 512.487)" fill="none" stroke="#414042" stroke-miterlimit="10" stroke-width="1"/>
    <rect id="Rectangle_824" data-name="Rectangle 824" width="27.025" height="47.521" transform="translate(389.791 648.938) rotate(90)" fill="#98a0a7"/>
    <rect id="Rectangle_825" data-name="Rectangle 825" width="22.162" height="38.68" transform="translate(385.37 651.37) rotate(90)" fill="#1535b6"/>
    <rect id="Rectangle_826" data-name="Rectangle 826" width="22.162" height="38.68" transform="translate(385.37 651.37) rotate(90)" fill="none" stroke="#414042" stroke-miterlimit="10" stroke-width="1"/>
    <line id="Line_557" data-name="Line 557" y2="5.818" transform="translate(387.514 659.542)" fill="none" stroke="#414042" stroke-miterlimit="10" stroke-width="1"/>
    <line id="Line_558" data-name="Line 558" y1="0.464" transform="translate(387.514 666.014)" fill="none" stroke="#414042" stroke-miterlimit="10" stroke-width="1"/>
    <path id="Path_3301" data-name="Path 3301" d="M530.643,82.465a5.162,5.162,0,0,0-5.161-5.161,5.073,5.073,0,0,0-2.186.524,7.226,7.226,0,0,0-5.076-3.868,8.146,8.146,0,0,0,.311-1.539,8.589,8.589,0,0,0-8.589-8.589,8.5,8.5,0,0,0-5.783,2.32,15.7,15.7,0,0,0-30.815-3.109,10.919,10.919,0,0,0-2.154-.217,10.808,10.808,0,0,0-10.439,8.082,9.774,9.774,0,0,0-13.5,9.116,9.578,9.578,0,0,0,1.525,4.946H529.9A5.023,5.023,0,0,0,530.643,82.465Z" transform="translate(-67.573 485.777)" fill="#1535b6"/>
    <line id="Line_559" data-name="Line 559" x2="59.672" transform="translate(403.398 570.747)" fill="none" stroke="#414042" stroke-miterlimit="10" stroke-width="1"/>
    <line id="Line_560" data-name="Line 560" x1="17.701" transform="translate(381.475 570.747)" fill="none" stroke="#414042" stroke-miterlimit="10" stroke-width="1"/>
    <path id="Path_3302" data-name="Path 3302" d="M464.984,61.35a9.409,9.409,0,0,1,9.381,9.381,9.228,9.228,0,0,1-.548,3.026,9.3,9.3,0,0,0,1.569-5.164,9.409,9.409,0,0,0-9.38-9.381h0a9.383,9.383,0,0,0-8.833,6.356A9.384,9.384,0,0,1,464.984,61.35Z" transform="translate(-62.882 489.437)" fill="#a1a0a0"/>
    <path id="Path_3303" data-name="Path 3303" d="M496.565,68.98a5.154,5.154,0,0,1-7.165-1.231,5.042,5.042,0,0,1-.713-1.527,5.09,5.09,0,0,0,.932,2.807,5.154,5.154,0,0,0,7.165,1.231h0a5.143,5.143,0,0,0,1.944-5.639A5.145,5.145,0,0,1,496.565,68.98Z" transform="translate(-47.977 491.996)" fill="#a1a0a0"/>
    <path id="Path_3304" data-name="Path 3304" d="M510.154,72.421a8.589,8.589,0,0,0-8.589-8.589,8.5,8.5,0,0,0-5.783,2.32,15.7,15.7,0,0,0-30.815-3.109" transform="translate(-59.196 485.777)" fill="none" stroke="#414042" stroke-miterlimit="10" stroke-width="1"/>
    <path id="Path_3305" data-name="Path 3305" d="M488.393,67.082a10.527,10.527,0,1,1-10.527-10.529A10.528,10.528,0,0,1,488.393,67.082Z" transform="translate(-58.075 488.18)" fill="#d84f29"/>
    <path id="Path_3306" data-name="Path 3306" d="M474.978,69.351l-3.693-3.693,1.621-1.621,2.053,2.053,4.929-5.048,1.641,1.6Z" transform="translate(-56.208 490.303)" fill="#fff"/>
    <line id="Line_561" data-name="Line 561" y2="1.583" transform="translate(420.198 542.497)" fill="none" stroke="#414042" stroke-miterlimit="10" stroke-width="1"/>
    <line id="Line_562" data-name="Line 562" x1="1.022" y2="2.805" transform="translate(423.991 542.047)" fill="none" stroke="#414042" stroke-miterlimit="10" stroke-width="1"/>
    <line id="Line_563" data-name="Line 563" x1="1.118" y2="1.012" transform="translate(427.29 545.864)" fill="none" stroke="#414042" stroke-miterlimit="10" stroke-width="1"/>
    <line id="Line_564" data-name="Line 564" x1="2.456" y2="1.413" transform="translate(429.696 548.495)" fill="none" stroke="#414042" stroke-miterlimit="10" stroke-width="1"/>
    <line id="Line_565" data-name="Line 565" x1="1.235" y2="0.215" transform="translate(430.917 553.366)" fill="none" stroke="#414042" stroke-miterlimit="10" stroke-width="1"/>
    <line id="Line_566" data-name="Line 566" x1="2.467" y1="0.884" transform="translate(430.807 557.449)" fill="none" stroke="#414042" stroke-miterlimit="10" stroke-width="1"/>
    <line id="Line_567" data-name="Line 567" x1="1.245" y1="0.724" transform="translate(429.379 561.046)" fill="none" stroke="#414042" stroke-miterlimit="10" stroke-width="1"/>
    <line id="Line_568" data-name="Line 568" x1="1.603" y1="1.926" transform="translate(426.804 563.936)" fill="none" stroke="#414042" stroke-miterlimit="10" stroke-width="1"/>
    <line id="Line_569" data-name="Line 569" x1="0.362" y1="1.01" transform="translate(423.396 565.77)" fill="none" stroke="#414042" stroke-miterlimit="10" stroke-width="1"/>
    <line id="Line_570" data-name="Line 570" y1="2.506" transform="translate(419.565 566.324)" fill="none" stroke="#414042" stroke-miterlimit="10" stroke-width="1"/>
    <line id="Line_571" data-name="Line 571" y1="1.396" x2="0.517" transform="translate(415.26 565.534)" fill="none" stroke="#414042" stroke-miterlimit="10" stroke-width="1"/>
    <line id="Line_572" data-name="Line 572" y1="2.739" x2="2.017" transform="translate(410.471 563.493)" fill="none" stroke="#414042" stroke-miterlimit="10" stroke-width="1"/>
    <line id="Line_573" data-name="Line 573" y1="0.597" x2="1.179" transform="translate(408.919 560.449)" fill="none" stroke="#414042" stroke-miterlimit="10" stroke-width="1"/>
    <line id="Line_574" data-name="Line 574" y1="0.679" x2="2.743" transform="translate(406.151 556.77)" fill="none" stroke="#414042" stroke-miterlimit="10" stroke-width="1"/>
    <line id="Line_575" data-name="Line 575" x2="1.357" y2="0.25" transform="translate(407.667 552.652)" fill="none" stroke="#414042" stroke-miterlimit="10" stroke-width="1"/>
    <line id="Line_576" data-name="Line 576" x2="2.16" y2="1.271" transform="translate(408.311 548.041)" fill="none" stroke="#414042" stroke-miterlimit="10" stroke-width="1"/>
    <line id="Line_577" data-name="Line 577" x2="0.593" y2="0.967" transform="translate(412.467 545.468)" fill="none" stroke="#414042" stroke-miterlimit="10" stroke-width="1"/>
    <line id="Line_578" data-name="Line 578" x2="1.218" y2="2.364" transform="translate(415.26 542.256)" fill="none" stroke="#414042" stroke-miterlimit="10" stroke-width="1"/>
    <rect id="Rectangle_827" data-name="Rectangle 827" width="75.639" height="51.788" transform="translate(409.087 623.052)" fill="#93a9c3"/>
    <rect id="Rectangle_828" data-name="Rectangle 828" width="66.686" height="42.487" transform="translate(413.564 627.702)" fill="#d84f29"/>
    <path id="Path_3307" data-name="Path 3307" d="M548.6,147.671H465.551l-2.641-6.309h88.332Z" transform="translate(-60.169 528.292)" fill="#fff"/>
    <path id="Path_3308" data-name="Path 3308" d="M548.6,147.671H465.551l-2.641-6.309h88.332Z" transform="translate(-60.169 528.292)" fill="none" stroke="#414042" stroke-miterlimit="10" stroke-width="1"/>
    <line id="Line_579" data-name="Line 579" x2="10.858" transform="translate(441.478 672.426)" fill="none" stroke="#414042" stroke-miterlimit="10" stroke-width="1"/>
    <path id="Path_3309" data-name="Path 3309" d="M507.766,133.1l4.337-.763-.931-5.288-4.339.763a10.286,10.286,0,0,0-.856-1.491l2.831-3.372-4.113-3.453-2.833,3.376a10.142,10.142,0,0,0-1.614-.588v-4.407h-5.369v4.407a10.2,10.2,0,0,0-1.6.579l-2.825-3.38-4.12,3.444,2.825,3.378a10.34,10.34,0,0,0-.859,1.489l-4.339-.772-.94,5.287,4.335.77a10.2,10.2,0,0,0,.3,1.692l-3.821,2.2,2.679,4.655,3.812-2.195a10.263,10.263,0,0,0,1.32,1.1l-1.511,4.139,5.044,1.841,1.511-4.138c.287.025.576.044.869.044s.569-.019.85-.043l1.5,4.141,5.046-1.831-1.5-4.141a10.285,10.285,0,0,0,1.323-1.1l3.808,2.2L511.277,137l-3.816-2.207A10.036,10.036,0,0,0,507.766,133.1Zm-6.17-.932a4.032,4.032,0,1,1-4.033-4.032A4.033,4.033,0,0,1,501.6,132.168Z" transform="translate(-50.656 517.186)" fill="#fff"/>
    <path id="Path_3310" data-name="Path 3310" d="M498.222,128.875a4.032,4.032,0,1,1-4.033-4.032A4.033,4.033,0,0,1,498.222,128.875Z" transform="translate(-47.282 520.48)" fill="none" stroke="#414042" stroke-miterlimit="10" stroke-width="1"/>
    <path id="Path_3311" data-name="Path 3311" d="M445.555,139.27l2.207-.389-.473-2.691-2.209.389a5.084,5.084,0,0,0-.435-.759l1.441-1.716-2.093-1.757-1.442,1.717a5.185,5.185,0,0,0-.82-.3v-2.243H439v2.243a5.139,5.139,0,0,0-.813.293l-1.438-1.72-2.1,1.753,1.438,1.719a5.1,5.1,0,0,0-.437.759l-2.208-.393-.479,2.69,2.207.393a5.17,5.17,0,0,0,.152.86l-1.944,1.119,1.364,2.369,1.94-1.117a5.317,5.317,0,0,0,.672.561l-.769,2.1,2.567.938.769-2.106c.146.013.293.022.442.022s.289-.009.433-.021l.764,2.106,2.569-.932-.766-2.106a5.341,5.341,0,0,0,.673-.56l1.938,1.119,1.368-2.364-1.943-1.124A5.187,5.187,0,0,0,445.555,139.27Zm-3.14-.474a2.052,2.052,0,1,1-2.052-2.052A2.052,2.052,0,0,1,442.415,138.8Z" transform="translate(-74.333 523.64)" fill="#fff"/>
    <path id="Path_3312" data-name="Path 3312" d="M440.7,137.12a2.052,2.052,0,1,1-2.052-2.052A2.052,2.052,0,0,1,440.7,137.12Z" transform="translate(-72.616 525.316)" fill="none" stroke="#414042" stroke-miterlimit="10" stroke-width="1"/>
    <path id="Path_3313" data-name="Path 3313" d="M484.075,76.464V84.4a5.533,5.533,0,0,1-5.533,5.533H453.359a6.725,6.725,0,0,0-6.724,6.726v2.379" transform="translate(-67.867 497.597)" fill="none" stroke="#414042" stroke-miterlimit="10" stroke-width="1"/>
    <path id="Path_3314" data-name="Path 3314" d="M486.086,76.464v3.218a5.532,5.532,0,0,1-5.532,5.533H434.159a6.725,6.725,0,0,0-6.724,6.726V149.7" transform="translate(-76.948 497.597)" fill="none" stroke="#414042" stroke-miterlimit="10" stroke-width="1"/>
    <path id="Path_3315" data-name="Path 3315" d="M480.235,76.464v3.218a5.533,5.533,0,0,0,5.534,5.533h42.858a6.725,6.725,0,0,1,6.724,6.726v31.417" transform="translate(-51.975 497.597)" fill="none" stroke="#414042" stroke-miterlimit="10" stroke-width="1"/>
    <path id="Path_3316" data-name="Path 3316" d="M466.09,78.134l1.67-1.67,1.655,1.655" transform="translate(-58.665 497.598)" fill="none" stroke="#414042" stroke-miterlimit="10" stroke-width="1"/>
    <path id="Path_3317" data-name="Path 3317" d="M470.925,78.134l1.67-1.67,1.655,1.655" transform="translate(-56.378 497.598)" fill="none" stroke="#414042" stroke-miterlimit="10" stroke-width="1"/>
    <path id="Path_3318" data-name="Path 3318" d="M474.432,78.134l1.67-1.67,1.655,1.655" transform="translate(-54.719 497.598)" fill="none" stroke="#414042" stroke-miterlimit="10" stroke-width="1"/>
    <path id="Path_3319" data-name="Path 3319" d="M479.106,78.134l1.67-1.67,1.656,1.655" transform="translate(-52.509 497.598)" fill="none" stroke="#414042" stroke-miterlimit="10" stroke-width="1"/>
    <path id="Path_3320" data-name="Path 3320" d="M503.448,122.6V94.638a5.534,5.534,0,0,0-5.532-5.534H482.159a6.724,6.724,0,0,1-6.724-6.724V76.464" transform="translate(-54.245 497.597)" fill="none" stroke="#414042" stroke-miterlimit="10" stroke-width="1"/>
    <path id="Path_3321" data-name="Path 3321" d="M510.1,110.635a11.161,11.161,0,0,1,0-22.323" transform="translate(-43.126 503.201)" fill="none" stroke="#414042" stroke-miterlimit="10" stroke-width="1" stroke-dasharray="2"/>
    <path id="Path_3322" data-name="Path 3322" d="M506.521,88.312a11.161,11.161,0,1,1,0,22.323" transform="translate(-39.542 503.201)" fill="none" stroke="#414042" stroke-miterlimit="10" stroke-width="1"/>
    <path id="Path_3323" data-name="Path 3323" d="M513.122,96.74l-.882,0a4.085,4.085,0,0,0-.529-1.273l.625-.625a.569.569,0,0,0,0-.807l-.467-.467a.572.572,0,0,0-.807,0l-.625.625a4.018,4.018,0,0,0-1.271-.527v-.884a.571.571,0,0,0-.573-.57h-.66a.57.57,0,0,0-.57.57v.884a4.033,4.033,0,0,0-1.254.514l-.622-.626a.569.569,0,0,0-.807,0l-.47.465a.571.571,0,0,0,0,.806l.62.629a4.024,4.024,0,0,0-.532,1.27l-.882,0a.568.568,0,0,0-.572.57l0,.661a.57.57,0,0,0,.567.573l.882,0a4.026,4.026,0,0,0,.524,1.273l-.628.626a.57.57,0,0,0,0,.806l.464.467a.566.566,0,0,0,.807,0l.628-.62a4.06,4.06,0,0,0,1.273.532l0,.881a.57.57,0,0,0,.569.573l.661,0a.569.569,0,0,0,.572-.567l0-.885a4.018,4.018,0,0,0,1.274-.526l.623.629a.575.575,0,0,0,.81,0l.465-.467a.566.566,0,0,0,0-.806l-.62-.628a4.078,4.078,0,0,0,.53-1.271h.881a.573.573,0,0,0,.573-.57v-.661A.569.569,0,0,0,513.122,96.74Zm-4.856,2.7a1.811,1.811,0,1,1,1.81-1.813A1.812,1.812,0,0,1,508.266,99.443Z" transform="translate(-41.284 505.043)" fill="none" stroke="#414042" stroke-miterlimit="10" stroke-width="1"/>
    <path id="Path_3324" data-name="Path 3324" d="M436.154,84.747a9.935,9.935,0,0,1,0-19.87" transform="translate(-77.523 492.117)" fill="none" stroke="#414042" stroke-miterlimit="10" stroke-width="1" stroke-dasharray="2"/>
    <path id="Path_3325" data-name="Path 3325" d="M432.964,64.877a9.935,9.935,0,1,1,0,19.87" transform="translate(-74.333 492.117)" fill="none" stroke="#414042" stroke-miterlimit="10" stroke-width="1"/>
    <line id="Line_580" data-name="Line 580" x2="3.724" transform="translate(356.769 566.929)" fill="none" stroke="#414042" stroke-miterlimit="10" stroke-width="1"/>
    <line id="Line_581" data-name="Line 581" y1="3.724" transform="translate(358.631 565.068)" fill="none" stroke="#414042" stroke-miterlimit="10" stroke-width="1"/>
    <path id="Path_3326" data-name="Path 3326" d="M491.863,50.518l3.039,1.755v-3.51l-3.039,1.755,3.039,1.755v-3.51Z" transform="translate(-46.475 484.496)" fill="none" stroke="#414042" stroke-miterlimit="10" stroke-width="1"/>
    <path id="Path_3327" data-name="Path 3327" d="M441.573,78.162l3.04,1.755v-3.51l-3.04,1.755,3.04,1.755v-3.51Z" transform="translate(-70.261 497.57)" fill="none" stroke="#414042" stroke-miterlimit="10" stroke-width="1"/>
    <path id="Path_3328" data-name="Path 3328" d="M484.629,45.023l-4.223,2.438V42.585l4.223,2.438-4.223,2.438V42.585Z" transform="translate(-51.894 481.574)" fill="none" stroke="#414042" stroke-miterlimit="10" stroke-width="1"/>
    <path id="Path_3329" data-name="Path 3329" d="M516.8,67.636l-4.223,2.438V65.2l4.223,2.438-4.223,2.438V65.2Z" transform="translate(-36.678 492.269)" fill="none" stroke="#414042" stroke-miterlimit="10" stroke-width="1"/>
    <line id="Line_582" data-name="Line 582" x2="29.146" transform="translate(450.474 542.497)" fill="none" stroke="#414042" stroke-miterlimit="10" stroke-width="1"/>
    <line id="Line_583" data-name="Line 583" x1="2.518" transform="translate(480.863 542.497)" fill="none" stroke="#414042" stroke-miterlimit="10" stroke-width="1"/>
    <line id="Line_584" data-name="Line 584" x1="2.518" transform="translate(484.592 542.497)" fill="none" stroke="#414042" stroke-miterlimit="10" stroke-width="1"/>
    <line id="Line_585" data-name="Line 585" x1="29.146" transform="translate(357.255 548.832)" fill="none" stroke="#414042" stroke-miterlimit="10" stroke-width="1"/>
    <line id="Line_586" data-name="Line 586" x2="2.518" transform="translate(353.494 548.832)" fill="none" stroke="#414042" stroke-miterlimit="10" stroke-width="1"/>
    <line id="Line_587" data-name="Line 587" x2="2.518" transform="translate(349.764 548.832)" fill="none" stroke="#414042" stroke-miterlimit="10" stroke-width="1"/>
    <line id="Line_588" data-name="Line 588" x2="4.288" transform="translate(491.286 542.048)" fill="none" stroke="#414042" stroke-miterlimit="10" stroke-width="1"/>
    <line id="Line_589" data-name="Line 589" y1="4.288" transform="translate(493.429 539.904)" fill="none" stroke="#414042" stroke-miterlimit="10" stroke-width="1"/>
    <line id="Line_590" data-name="Line 590" x2="3.218" transform="translate(366.399 539.624)" fill="none" stroke="#414042" stroke-miterlimit="10" stroke-width="1"/>
    <line id="Line_591" data-name="Line 591" y1="3.218" transform="translate(368.008 538.015)" fill="none" stroke="#414042" stroke-miterlimit="10" stroke-width="1"/>
    <line id="Line_592" data-name="Line 592" x2="3.218" transform="translate(478.011 575.732)" fill="none" stroke="#414042" stroke-miterlimit="10" stroke-width="1"/>
    <line id="Line_593" data-name="Line 593" y1="3.218" transform="translate(479.62 574.123)" fill="none" stroke="#414042" stroke-miterlimit="10" stroke-width="1"/>
    <line id="Line_594" data-name="Line 594" x2="3.218" transform="translate(338.908 568.791)" fill="none" stroke="#414042" stroke-miterlimit="10" stroke-width="1"/>
    <line id="Line_595" data-name="Line 595" y1="3.218" transform="translate(340.517 567.182)" fill="none" stroke="#414042" stroke-miterlimit="10" stroke-width="1"/>
    <line id="Line_596" data-name="Line 596" x2="3.218" transform="translate(408.489 526.597)" fill="none" stroke="#414042" stroke-miterlimit="10" stroke-width="1"/>
    <line id="Line_597" data-name="Line 597" y1="3.218" transform="translate(410.098 524.988)" fill="none" stroke="#414042" stroke-miterlimit="10" stroke-width="1"/>
    <line id="Line_598" data-name="Line 598" x2="27.447" transform="translate(372.831 539.624)" fill="none" stroke="#414042" stroke-miterlimit="10" stroke-width="1"/>
    <line id="Line_599" data-name="Line 599" x2="27.447" transform="translate(440.71 547.723)" fill="none" stroke="#414042" stroke-miterlimit="10" stroke-width="1"/>
    <line id="Line_600" data-name="Line 600" x2="164.974" transform="translate(334.754 675.727)" fill="none" stroke="#414042" stroke-miterlimit="10" stroke-width="1"/>
  </g>
</svg>
